/* XPM */
static char * fgx_32x32x32_xpm[] = {
"32 32 117 2",
"  	c None",
". 	c #464646",
"+ 	c #272727",
"@ 	c #333333",
"# 	c #575757",
"$ 	c #4A4A4A",
"% 	c #131313",
"& 	c #000000",
"* 	c #0D0D0D",
"= 	c #3C3C3C",
"- 	c #050505",
"; 	c #010101",
"> 	c #020202",
", 	c #040404",
"' 	c #151515",
") 	c #060606",
"! 	c #0A0A0A",
"~ 	c #2F2F2F",
"{ 	c #070707",
"] 	c #6E6E6E",
"^ 	c #0B0B0B",
"/ 	c #494949",
"( 	c #9E9E9E",
"_ 	c #101010",
": 	c #B4B4B4",
"< 	c #898989",
"[ 	c #080808",
"} 	c #2C2C2C",
"| 	c #5C5C5C",
"1 	c #FFFFFF",
"2 	c #444444",
"3 	c #D6D6D6",
"4 	c #C5C5C5",
"5 	c #FCFCFC",
"6 	c #242424",
"7 	c #545454",
"8 	c #030303",
"9 	c #1E1E1E",
"0 	c #8C8C8C",
"a 	c #676767",
"b 	c #F4F4F4",
"c 	c #E9E9E9",
"d 	c #818181",
"e 	c #424242",
"f 	c #959595",
"g 	c #E0E0E0",
"h 	c #FEFEFE",
"i 	c #C8C8C8",
"j 	c #F9F9F9",
"k 	c #4F4F4F",
"l 	c #2B2B2B",
"m 	c #373737",
"n 	c #454545",
"o 	c #5A5A5A",
"p 	c #BDBDBD",
"q 	c #C4C4C4",
"r 	c #D9D9D9",
"s 	c #BFBFBF",
"t 	c #979797",
"u 	c #262626",
"v 	c #292929",
"w 	c #383838",
"x 	c #0F0F0F",
"y 	c #1D1D1D",
"z 	c #606060",
"A 	c #171717",
"B 	c #090909",
"C 	c #2D2D2D",
"D 	c #434343",
"E 	c #191919",
"F 	c #1C1C1C",
"G 	c #717171",
"H 	c #0E0E0E",
"I 	c #141414",
"J 	c #343434",
"K 	c #3F3F3F",
"L 	c #2E2E2E",
"M 	c #111111",
"N 	c #161616",
"O 	c #1B1B1B",
"P 	c #121212",
"Q 	c #393939",
"R 	c #4E4E4E",
"S 	c #181818",
"T 	c #252525",
"U 	c #353535",
"V 	c #3B3B3B",
"W 	c #1A1A1A",
"X 	c #595959",
"Y 	c #212121",
"Z 	c #1F1F1F",
"` 	c #303030",
" .	c #323232",
"..	c #4C4C4C",
"+.	c #939393",
"@.	c #A8A8A8",
"#.	c #7D7D7D",
"$.	c #6F6F6F",
"%.	c #6A6A6A",
"&.	c #282828",
"*.	c #2A2A2A",
"=.	c #838383",
"-.	c #A9A9A9",
";.	c #9F9F9F",
">.	c #9C9C9C",
",.	c #A5A5A5",
"'.	c #A7A7A7",
").	c #686868",
"!.	c #313131",
"~.	c #202020",
"{.	c #929292",
"].	c #A6A6A6",
"^.	c #868686",
"/.	c #626262",
"(.	c #636363",
"_.	c #737373",
":.	c #949494",
"                                                                ",
"                                                                ",
"                                                                ",
"                                                                ",
"                                                                ",
"                    . + @ #                                     ",
"            $ % & & & & & & & & & * =                           ",
"          - ; & > - - , - - , > ; ; & '                         ",
"        ) ; - > & & & & & & & & & & ! & ~                       ",
"      + & - & ; & ; ; ; ; ; & & & ; & { & ]                     ",
"      & ) & > & & & & & & ; ; ; & , , & ^ / (                   ",
"    _ & ; & & & & & ; ; & & & & , & ! & : < @                   ",
"  $ & ) & ; & & & & & & & , [ [ & } * | 1 ] & (                 ",
"  * & ; & & & & & & [ * ) & , & 2 1 3 4 5 6 & 7                 ",
"  [ & & & & & & & & & & 8 9 0 a | 1 b c = & ) & d               ",
"  { & ; & & & & ; & e f g h 1 c i j 1 k & ! & l m n             ",
"  , & & & & & & > & o p q c r s t u v & & * = w ' x y z         ",
"  _ & > & ; ; & & & & ; & A % & ; & & B C D 6 _ E F A * C G     ",
"  6 & 8 & ; & ; 8 8 H x B ; & ; ) I J K L M % F A N E O P I Q   ",
"  R & { > - , ; & & & & & B S T U V v I M O W N S E N S O % _ X ",
"    Y & ; & & [ O Z `  .V = m L Z P P W O A A E S N F I % ..+.@.",
"      #.] $.%.< ( K Y &.S % M P N O O A A S E A A y H *.=.-.;.  ",
"                    @ [ W F E W E A A E E S N E O * 2 >.,.      ",
"                      X P P O E A N N N N S y A P z '.(         ",
"                        #.L H P E F y y O A * Z #.-.            ",
"                            ).!.N H * * x ~.R {.].              ",
"                                ^.] /.(._.:.-.                  ",
"                                                                ",
"                                                                ",
"                                                                ",
"                                                                ",
"                                                                "};
